<mxfile host="app.diagrams.net" modified="2022-03-29T11:28:40.871Z" agent="5.0 (Windows NT 10.0; Win64; x64) AppleWebKit/537.36 (KHTML, like Gecko) Chrome/99.0.4844.74 Safari/537.36 Edg/99.0.1150.52" etag="Tip04mV9P26zbqB3nsO7" version="17.1.2" type="github">
  <diagram id="ybQvtoF5Chei-OxCzm2e" name="Page-1">
    <mxGraphModel dx="1662" dy="762" grid="1" gridSize="10" guides="1" tooltips="1" connect="1" arrows="1" fold="1" page="1" pageScale="1" pageWidth="827" pageHeight="1169" math="0" shadow="0">
      <root>
        <mxCell id="0" />
        <mxCell id="1" parent="0" />
        <mxCell id="1RHa4myU73aVEeNXAP9--8" value="" style="edgeStyle=orthogonalEdgeStyle;rounded=0;orthogonalLoop=1;jettySize=auto;html=1;" edge="1" parent="1" source="1RHa4myU73aVEeNXAP9--1" target="1RHa4myU73aVEeNXAP9--7">
          <mxGeometry relative="1" as="geometry" />
        </mxCell>
        <mxCell id="1RHa4myU73aVEeNXAP9--1" value="Администратор ресторана" style="shape=umlActor;verticalLabelPosition=bottom;verticalAlign=top;html=1;outlineConnect=0;" vertex="1" parent="1">
          <mxGeometry x="240" y="80" width="30" height="60" as="geometry" />
        </mxCell>
        <mxCell id="1RHa4myU73aVEeNXAP9--7" value="Клиент&lt;br&gt;" style="shape=umlActor;verticalLabelPosition=bottom;verticalAlign=top;html=1;outlineConnect=0;" vertex="1" parent="1">
          <mxGeometry x="240" y="310" width="30" height="60" as="geometry" />
        </mxCell>
        <mxCell id="1RHa4myU73aVEeNXAP9--9" value="&lt;br&gt;Редактирование&lt;br&gt;меню" style="ellipse;whiteSpace=wrap;html=1;verticalAlign=top;" vertex="1" parent="1">
          <mxGeometry x="305" y="80" width="120" height="60" as="geometry" />
        </mxCell>
        <mxCell id="1RHa4myU73aVEeNXAP9--11" value="" style="endArrow=none;html=1;rounded=0;entryX=0;entryY=0.5;entryDx=0;entryDy=0;" edge="1" parent="1" source="1RHa4myU73aVEeNXAP9--1" target="1RHa4myU73aVEeNXAP9--9">
          <mxGeometry width="50" height="50" relative="1" as="geometry">
            <mxPoint x="420" y="410" as="sourcePoint" />
            <mxPoint x="470" y="360" as="targetPoint" />
          </mxGeometry>
        </mxCell>
        <mxCell id="1RHa4myU73aVEeNXAP9--12" value="&lt;br&gt;Добавить" style="ellipse;whiteSpace=wrap;html=1;verticalAlign=top;" vertex="1" parent="1">
          <mxGeometry x="505" y="20" width="120" height="60" as="geometry" />
        </mxCell>
        <mxCell id="1RHa4myU73aVEeNXAP9--14" value="&amp;lt;&amp;lt;include&amp;gt;&amp;gt;" style="html=1;verticalAlign=bottom;labelBackgroundColor=none;endArrow=open;endFill=0;dashed=1;rounded=0;exitX=1;exitY=0.5;exitDx=0;exitDy=0;entryX=0;entryY=0.5;entryDx=0;entryDy=0;" edge="1" parent="1" source="1RHa4myU73aVEeNXAP9--9" target="1RHa4myU73aVEeNXAP9--12">
          <mxGeometry width="160" relative="1" as="geometry">
            <mxPoint x="370" y="390" as="sourcePoint" />
            <mxPoint x="530" y="390" as="targetPoint" />
          </mxGeometry>
        </mxCell>
        <mxCell id="1RHa4myU73aVEeNXAP9--15" value="Удалить" style="ellipse;whiteSpace=wrap;html=1;" vertex="1" parent="1">
          <mxGeometry x="505" y="90" width="125" height="60" as="geometry" />
        </mxCell>
        <mxCell id="1RHa4myU73aVEeNXAP9--16" value="&amp;lt;&amp;lt;include&amp;gt;&amp;gt;" style="html=1;verticalAlign=bottom;labelBackgroundColor=none;endArrow=open;endFill=0;dashed=1;rounded=0;exitX=1;exitY=0.5;exitDx=0;exitDy=0;entryX=0;entryY=0.5;entryDx=0;entryDy=0;" edge="1" parent="1" source="1RHa4myU73aVEeNXAP9--9" target="1RHa4myU73aVEeNXAP9--15">
          <mxGeometry width="160" relative="1" as="geometry">
            <mxPoint x="435" y="120" as="sourcePoint" />
            <mxPoint x="515" y="60" as="targetPoint" />
          </mxGeometry>
        </mxCell>
        <mxCell id="1RHa4myU73aVEeNXAP9--17" value="Изменить" style="ellipse;whiteSpace=wrap;html=1;" vertex="1" parent="1">
          <mxGeometry x="494" y="170" width="125" height="60" as="geometry" />
        </mxCell>
        <mxCell id="1RHa4myU73aVEeNXAP9--18" value="&amp;lt;&amp;lt;include&amp;gt;&amp;gt;" style="html=1;verticalAlign=bottom;labelBackgroundColor=none;endArrow=open;endFill=0;dashed=1;rounded=0;entryX=0;entryY=0.5;entryDx=0;entryDy=0;" edge="1" parent="1" target="1RHa4myU73aVEeNXAP9--17">
          <mxGeometry width="160" relative="1" as="geometry">
            <mxPoint x="430" y="110" as="sourcePoint" />
            <mxPoint x="504" y="140" as="targetPoint" />
          </mxGeometry>
        </mxCell>
        <mxCell id="1RHa4myU73aVEeNXAP9--19" value="Журнал меню" style="shape=umlActor;verticalLabelPosition=bottom;verticalAlign=top;html=1;outlineConnect=0;" vertex="1" parent="1">
          <mxGeometry x="750" y="190" width="30" height="60" as="geometry" />
        </mxCell>
        <mxCell id="1RHa4myU73aVEeNXAP9--20" value="" style="endArrow=none;html=1;rounded=0;entryX=0.5;entryY=0.5;entryDx=0;entryDy=0;entryPerimeter=0;exitX=1;exitY=0.5;exitDx=0;exitDy=0;" edge="1" parent="1" source="1RHa4myU73aVEeNXAP9--17" target="1RHa4myU73aVEeNXAP9--19">
          <mxGeometry width="50" height="50" relative="1" as="geometry">
            <mxPoint x="420" y="410" as="sourcePoint" />
            <mxPoint x="470" y="360" as="targetPoint" />
          </mxGeometry>
        </mxCell>
        <mxCell id="1RHa4myU73aVEeNXAP9--21" value="" style="endArrow=none;html=1;rounded=0;entryX=0.5;entryY=0.5;entryDx=0;entryDy=0;entryPerimeter=0;exitX=1;exitY=0.5;exitDx=0;exitDy=0;" edge="1" parent="1" source="1RHa4myU73aVEeNXAP9--15" target="1RHa4myU73aVEeNXAP9--19">
          <mxGeometry width="50" height="50" relative="1" as="geometry">
            <mxPoint x="629" y="210" as="sourcePoint" />
            <mxPoint x="775" y="230" as="targetPoint" />
          </mxGeometry>
        </mxCell>
        <mxCell id="1RHa4myU73aVEeNXAP9--22" value="" style="endArrow=none;html=1;rounded=0;exitX=1;exitY=0.5;exitDx=0;exitDy=0;" edge="1" parent="1" source="1RHa4myU73aVEeNXAP9--12">
          <mxGeometry width="50" height="50" relative="1" as="geometry">
            <mxPoint x="629" y="210" as="sourcePoint" />
            <mxPoint x="760" y="210" as="targetPoint" />
          </mxGeometry>
        </mxCell>
        <mxCell id="1RHa4myU73aVEeNXAP9--23" value="Просмотр меню" style="ellipse;whiteSpace=wrap;html=1;" vertex="1" parent="1">
          <mxGeometry x="375" y="270" width="130" height="60" as="geometry" />
        </mxCell>
        <mxCell id="1RHa4myU73aVEeNXAP9--24" value="" style="endArrow=none;html=1;rounded=0;entryX=0.5;entryY=0.5;entryDx=0;entryDy=0;entryPerimeter=0;exitX=1;exitY=0.5;exitDx=0;exitDy=0;" edge="1" parent="1" source="1RHa4myU73aVEeNXAP9--23" target="1RHa4myU73aVEeNXAP9--19">
          <mxGeometry width="50" height="50" relative="1" as="geometry">
            <mxPoint x="420" y="410" as="sourcePoint" />
            <mxPoint x="470" y="360" as="targetPoint" />
          </mxGeometry>
        </mxCell>
        <mxCell id="1RHa4myU73aVEeNXAP9--25" value="" style="endArrow=none;html=1;rounded=0;exitX=0.5;exitY=0.5;exitDx=0;exitDy=0;exitPerimeter=0;entryX=0;entryY=0.5;entryDx=0;entryDy=0;" edge="1" parent="1" source="1RHa4myU73aVEeNXAP9--7" target="1RHa4myU73aVEeNXAP9--23">
          <mxGeometry width="50" height="50" relative="1" as="geometry">
            <mxPoint x="420" y="410" as="sourcePoint" />
            <mxPoint x="470" y="360" as="targetPoint" />
          </mxGeometry>
        </mxCell>
        <mxCell id="1RHa4myU73aVEeNXAP9--26" value="Сделать заказ" style="ellipse;whiteSpace=wrap;html=1;" vertex="1" parent="1">
          <mxGeometry x="349" y="370" width="130" height="70" as="geometry" />
        </mxCell>
        <mxCell id="1RHa4myU73aVEeNXAP9--27" value="" style="endArrow=none;html=1;rounded=0;entryX=0;entryY=0.5;entryDx=0;entryDy=0;exitX=0.5;exitY=0.5;exitDx=0;exitDy=0;exitPerimeter=0;" edge="1" parent="1" source="1RHa4myU73aVEeNXAP9--7" target="1RHa4myU73aVEeNXAP9--26">
          <mxGeometry width="50" height="50" relative="1" as="geometry">
            <mxPoint x="420" y="410" as="sourcePoint" />
            <mxPoint x="470" y="360" as="targetPoint" />
          </mxGeometry>
        </mxCell>
        <mxCell id="1RHa4myU73aVEeNXAP9--28" value="выбрать самовывоз" style="ellipse;whiteSpace=wrap;html=1;" vertex="1" parent="1">
          <mxGeometry x="550" y="320" width="130" height="70" as="geometry" />
        </mxCell>
        <mxCell id="1RHa4myU73aVEeNXAP9--31" value="&amp;lt;&amp;lt;extend&amp;gt;&amp;gt;" style="html=1;verticalAlign=bottom;labelBackgroundColor=none;endArrow=open;endFill=0;dashed=1;rounded=0;entryX=0;entryY=0.5;entryDx=0;entryDy=0;exitX=1;exitY=0.5;exitDx=0;exitDy=0;" edge="1" parent="1" source="1RHa4myU73aVEeNXAP9--26" target="1RHa4myU73aVEeNXAP9--28">
          <mxGeometry width="160" relative="1" as="geometry">
            <mxPoint x="370" y="390" as="sourcePoint" />
            <mxPoint x="530" y="390" as="targetPoint" />
          </mxGeometry>
        </mxCell>
        <mxCell id="1RHa4myU73aVEeNXAP9--32" value="оформить доставку" style="ellipse;whiteSpace=wrap;html=1;" vertex="1" parent="1">
          <mxGeometry x="550" y="410" width="130" height="70" as="geometry" />
        </mxCell>
        <mxCell id="1RHa4myU73aVEeNXAP9--33" value="&amp;lt;&amp;lt;extend&amp;gt;&amp;gt;" style="html=1;verticalAlign=bottom;labelBackgroundColor=none;endArrow=open;endFill=0;dashed=1;rounded=0;entryX=0;entryY=0.5;entryDx=0;entryDy=0;exitX=1;exitY=0.5;exitDx=0;exitDy=0;" edge="1" parent="1" target="1RHa4myU73aVEeNXAP9--32" source="1RHa4myU73aVEeNXAP9--26">
          <mxGeometry width="160" relative="1" as="geometry">
            <mxPoint x="479" y="495" as="sourcePoint" />
            <mxPoint x="530" y="480" as="targetPoint" />
          </mxGeometry>
        </mxCell>
        <mxCell id="1RHa4myU73aVEeNXAP9--37" value="Подача заказа клиенту&lt;span style=&quot;color: rgba(0 , 0 , 0 , 0) ; font-family: monospace ; font-size: 0px&quot;&gt;%3CmxGraphModel%3E%3Croot%3E%3CmxCell%20id%3D%220%22%2F%3E%3CmxCell%20id%3D%221%22%20parent%3D%220%22%2F%3E%3CmxCell%20id%3D%222%22%20value%3D%22%22%20style%3D%22endArrow%3Dnone%3Bhtml%3D1%3Brounded%3D0%3BentryX%3D0%3BentryY%3D0.5%3BentryDx%3D0%3BentryDy%3D0%3B%22%20edge%3D%221%22%20parent%3D%221%22%3E%3CmxGeometry%20width%3D%2250%22%20height%3D%2250%22%20relative%3D%221%22%20as%3D%22geometry%22%3E%3CmxPoint%20x%3D%22270%22%20y%3D%22110%22%20as%3D%22sourcePoint%22%2F%3E%3CmxPoint%20x%3D%22305%22%20y%3D%22110%22%20as%3D%22targetPoint%22%2F%3E%3C%2FmxGeometry%3E%3C%2FmxCell%3E%3C%2Froot%3E%3C%2FmxGraphModel%3E&lt;/span&gt;" style="ellipse;whiteSpace=wrap;html=1;" vertex="1" parent="1">
          <mxGeometry x="160" y="420" width="120" height="70" as="geometry" />
        </mxCell>
        <mxCell id="1RHa4myU73aVEeNXAP9--38" value="" style="endArrow=none;html=1;rounded=0;entryX=0.5;entryY=0;entryDx=0;entryDy=0;exitX=0.5;exitY=0.5;exitDx=0;exitDy=0;exitPerimeter=0;" edge="1" parent="1" source="1RHa4myU73aVEeNXAP9--1" target="1RHa4myU73aVEeNXAP9--23">
          <mxGeometry width="50" height="50" relative="1" as="geometry">
            <mxPoint x="280" y="120" as="sourcePoint" />
            <mxPoint x="315" y="120" as="targetPoint" />
          </mxGeometry>
        </mxCell>
        <mxCell id="1RHa4myU73aVEeNXAP9--39" value="Передача заказа на доставку" style="ellipse;whiteSpace=wrap;html=1;" vertex="1" parent="1">
          <mxGeometry x="80" y="480" width="120" height="70" as="geometry" />
        </mxCell>
        <mxCell id="1RHa4myU73aVEeNXAP9--40" value="" style="endArrow=none;html=1;rounded=0;exitX=0.5;exitY=0;exitDx=0;exitDy=0;" edge="1" parent="1" source="1RHa4myU73aVEeNXAP9--37" target="1RHa4myU73aVEeNXAP9--1">
          <mxGeometry width="50" height="50" relative="1" as="geometry">
            <mxPoint x="230" y="400" as="sourcePoint" />
            <mxPoint x="280" y="350" as="targetPoint" />
          </mxGeometry>
        </mxCell>
        <mxCell id="1RHa4myU73aVEeNXAP9--41" value="" style="endArrow=none;html=1;rounded=0;exitX=0.5;exitY=0;exitDx=0;exitDy=0;" edge="1" parent="1" source="1RHa4myU73aVEeNXAP9--39" target="1RHa4myU73aVEeNXAP9--1">
          <mxGeometry width="50" height="50" relative="1" as="geometry">
            <mxPoint x="30" y="350" as="sourcePoint" />
            <mxPoint x="250" y="134.68085106382978" as="targetPoint" />
          </mxGeometry>
        </mxCell>
        <mxCell id="1RHa4myU73aVEeNXAP9--42" value="Журнал заказов&lt;br&gt;" style="shape=umlActor;verticalLabelPosition=bottom;verticalAlign=top;html=1;outlineConnect=0;" vertex="1" parent="1">
          <mxGeometry x="780" y="480" width="30" height="60" as="geometry" />
        </mxCell>
        <mxCell id="1RHa4myU73aVEeNXAP9--43" value="" style="endArrow=none;html=1;rounded=0;entryX=0;entryY=0.3333333333333333;entryDx=0;entryDy=0;entryPerimeter=0;exitX=1;exitY=0.5;exitDx=0;exitDy=0;" edge="1" parent="1" source="1RHa4myU73aVEeNXAP9--28" target="1RHa4myU73aVEeNXAP9--42">
          <mxGeometry width="50" height="50" relative="1" as="geometry">
            <mxPoint x="460" y="400" as="sourcePoint" />
            <mxPoint x="510" y="350" as="targetPoint" />
          </mxGeometry>
        </mxCell>
        <mxCell id="1RHa4myU73aVEeNXAP9--44" value="" style="endArrow=none;html=1;rounded=0;exitX=1;exitY=0.5;exitDx=0;exitDy=0;" edge="1" parent="1" source="1RHa4myU73aVEeNXAP9--32">
          <mxGeometry width="50" height="50" relative="1" as="geometry">
            <mxPoint x="690" y="365" as="sourcePoint" />
            <mxPoint x="790" y="510" as="targetPoint" />
          </mxGeometry>
        </mxCell>
        <mxCell id="1RHa4myU73aVEeNXAP9--45" value="" style="endArrow=none;html=1;rounded=0;exitX=0.95;exitY=0.743;exitDx=0;exitDy=0;exitPerimeter=0;" edge="1" parent="1" source="1RHa4myU73aVEeNXAP9--37">
          <mxGeometry width="50" height="50" relative="1" as="geometry">
            <mxPoint x="230" y="570" as="sourcePoint" />
            <mxPoint x="800" y="520" as="targetPoint" />
          </mxGeometry>
        </mxCell>
        <mxCell id="1RHa4myU73aVEeNXAP9--46" value="Журнал заказов на доставку" style="shape=umlActor;verticalLabelPosition=bottom;verticalAlign=top;html=1;outlineConnect=0;" vertex="1" parent="1">
          <mxGeometry x="770" y="700" width="30" height="60" as="geometry" />
        </mxCell>
        <mxCell id="1RHa4myU73aVEeNXAP9--47" value="" style="endArrow=none;html=1;rounded=0;entryX=0;entryY=0.3333333333333333;entryDx=0;entryDy=0;entryPerimeter=0;exitX=1;exitY=0.5;exitDx=0;exitDy=0;" edge="1" parent="1" source="1RHa4myU73aVEeNXAP9--39" target="1RHa4myU73aVEeNXAP9--46">
          <mxGeometry width="50" height="50" relative="1" as="geometry">
            <mxPoint x="390" y="520" as="sourcePoint" />
            <mxPoint x="440" y="470" as="targetPoint" />
          </mxGeometry>
        </mxCell>
        <mxCell id="1RHa4myU73aVEeNXAP9--48" value="Курьер" style="shape=umlActor;verticalLabelPosition=bottom;verticalAlign=top;html=1;outlineConnect=0;" vertex="1" parent="1">
          <mxGeometry x="20" y="660" width="30" height="60" as="geometry" />
        </mxCell>
        <mxCell id="1RHa4myU73aVEeNXAP9--49" value="Просмотр заказов&lt;br&gt;на доставку" style="ellipse;whiteSpace=wrap;html=1;" vertex="1" parent="1">
          <mxGeometry x="200" y="670" width="120" height="80" as="geometry" />
        </mxCell>
        <mxCell id="1RHa4myU73aVEeNXAP9--50" value="Отметить как&lt;br&gt;&amp;nbsp;доставленный заказ&lt;br&gt;" style="ellipse;whiteSpace=wrap;html=1;" vertex="1" parent="1">
          <mxGeometry x="200" y="585" width="120" height="80" as="geometry" />
        </mxCell>
        <mxCell id="1RHa4myU73aVEeNXAP9--51" value="" style="endArrow=none;html=1;rounded=0;entryX=0;entryY=0.5;entryDx=0;entryDy=0;" edge="1" parent="1" source="1RHa4myU73aVEeNXAP9--48" target="1RHa4myU73aVEeNXAP9--50">
          <mxGeometry width="50" height="50" relative="1" as="geometry">
            <mxPoint x="360" y="500" as="sourcePoint" />
            <mxPoint x="410" y="450" as="targetPoint" />
          </mxGeometry>
        </mxCell>
        <mxCell id="1RHa4myU73aVEeNXAP9--52" value="" style="endArrow=none;html=1;rounded=0;entryX=0;entryY=0.5;entryDx=0;entryDy=0;" edge="1" parent="1" target="1RHa4myU73aVEeNXAP9--49">
          <mxGeometry width="50" height="50" relative="1" as="geometry">
            <mxPoint x="50" y="680" as="sourcePoint" />
            <mxPoint x="210" y="635" as="targetPoint" />
          </mxGeometry>
        </mxCell>
        <mxCell id="1RHa4myU73aVEeNXAP9--53" value="" style="endArrow=none;html=1;rounded=0;entryX=0;entryY=0.3333333333333333;entryDx=0;entryDy=0;entryPerimeter=0;" edge="1" parent="1" target="1RHa4myU73aVEeNXAP9--46">
          <mxGeometry width="50" height="50" relative="1" as="geometry">
            <mxPoint x="320" y="710" as="sourcePoint" />
            <mxPoint x="470" y="740" as="targetPoint" />
          </mxGeometry>
        </mxCell>
        <mxCell id="1RHa4myU73aVEeNXAP9--54" value="" style="endArrow=none;html=1;rounded=0;exitX=1;exitY=0.5;exitDx=0;exitDy=0;" edge="1" parent="1" source="1RHa4myU73aVEeNXAP9--50">
          <mxGeometry width="50" height="50" relative="1" as="geometry">
            <mxPoint x="330" y="720" as="sourcePoint" />
            <mxPoint x="770" y="720" as="targetPoint" />
          </mxGeometry>
        </mxCell>
      </root>
    </mxGraphModel>
  </diagram>
</mxfile>
